<svg id="logo-branco" xmlns="http://www.w3.org/2000/svg" xmlns:xlink="http://www.w3.org/1999/xlink" width="60.638" height="34.368" viewBox="0 0 60.638 34.368">
  <defs>
    <clipPath id="clip-path">
      <rect id="Retângulo_51" data-name="Retângulo 51" width="60.638" height="34.368" fill="#f2f2f2"/>
    </clipPath>
  </defs>
  <g id="Grupo_19" data-name="Grupo 19" clip-path="url(#clip-path)">
    <path id="Caminho_4" data-name="Caminho 4" d="M19.489,23.071h3c0,.017,0,.034,0,.051A11.245,11.245,0,1,1,0,23.122c0-.017,0-.034,0-.051H3c0,.017,0,.034,0,.051a8.246,8.246,0,0,0,16.492,0c0-.017,0-.034,0-.051m3-11.587A11.245,11.245,0,1,0,11.245,22.728,11.258,11.258,0,0,0,22.489,11.484m-3,0a8.246,8.246,0,1,1-8.246-8.246,8.256,8.256,0,0,1,8.246,8.246M21.067,0a1.6,1.6,0,1,0,1.6,1.6,1.6,1.6,0,0,0-1.6-1.6M47.546,11.484a11.238,11.238,0,0,1-19.491,7.634v9.664h-3v-17.3a11.245,11.245,0,1,1,22.489,0m-3,0A8.246,8.246,0,1,0,36.3,19.73a8.255,8.255,0,0,0,8.246-8.246m5.526-.1h0v17.4h3v-17.3a8.255,8.255,0,0,1,7.569-8.216V.261A11.257,11.257,0,0,0,50.073,11.38" transform="translate(0 0.001)" fill="#f2f2f2"/>
  </g>
</svg>
