<?xml version="1.0" encoding="UTF-8"?>
<svg id="Outline" xmlns="http://www.w3.org/2000/svg" viewBox="0 0 416.86 511.94">
  <defs>
    <style>
      .cls-1 {
        fill: #fff;
        stroke-width: 0px;
      }
    </style>
  </defs>
  <path class="cls-1" d="m373.21,169.95L169.69,20.61C122.16-14.19,55.41-3.87,20.61,43.66,7.23,61.93,0,83.98,0,106.63v298.67c.01,58.91,47.78,106.66,106.69,106.65,22.68,0,44.77-7.24,63.06-20.65l203.52-149.33c47.51-34.84,57.77-101.59,22.94-149.1-6.43-8.77-14.17-16.5-22.94-22.94l-.06.02Zm-25.26,137.6l-203.52,149.33c-28.54,20.85-68.58,14.62-89.43-13.91-7.99-10.94-12.31-24.13-12.33-37.67V106.63c-.24-24.15,13.36-46.3,35.01-57,9.02-4.59,19-6.99,29.12-7,13.57.05,26.76,4.46,37.63,12.57l203.52,149.33c28.49,20.92,34.62,60.98,13.7,89.47-3.85,5.24-8.47,9.86-13.7,13.7v-.15Z"/>
</svg>